<svg xmlns="http://www.w3.org/2000/svg" xmlns:xlink="http://www.w3.org/1999/xlink" width="40" height="40" viewBox="0 0 40 40">
    <defs>
        <circle id="a" cx="20" cy="20" r="20"/>
    </defs>
    <g fill="none" fill-rule="evenodd">
        <mask id="b" fill="#fff">
            <use xlink:href="#a"/>
        </mask>
        <use fill="#14ADEA" xlink:href="#a"/>
        <path fill="#FFF" d="M20 11.2l-7.8 4.5v9l7.8 4.5 7.8-4.5v-9z" mask="url(#b)"/>
        <path fill="#89D6F4" d="M27.8 15.696L20 20.09v9.111l7.8-4.502z" mask="url(#b)"/>
        <path fill="#C4EAF9" d="M20 11.2l-7.79 4.498L20 20.126l7.799-4.428z" mask="url(#b)"/>
        <g fill="#14ADEA" mask="url(#b)">
            <path d="M17.452 18.914c-.703 0-1.16.593-1.16 1.49 0 .898.457 1.491 1.16 1.491.703 0 1.177-.593 1.177-1.49 0-.898-.474-1.49-1.177-1.49m0 4.174c-1.499 0-2.532-1.135-2.532-2.684 0-1.559 1.033-2.685 2.532-2.685 1.507 0 2.549 1.126 2.549 2.685 0 1.55-1.042 2.684-2.549 2.684M21.697 21.463c.11.356.415.534.838.534.415 0 .704-.178.704-.5 0-.246-.161-.356-.492-.431l-.999-.212c-.762-.17-1.338-.568-1.338-1.449 0-1.016.847-1.685 1.998-1.685 1.27 0 1.99.695 2.135 1.592h-1.33c-.11-.287-.347-.508-.796-.508-.39 0-.652.17-.652.458 0 .228.161.356.432.414l1.015.237c.89.212 1.381.695 1.381 1.5 0 1.066-.898 1.676-2.032 1.676-1.245 0-2.092-.601-2.278-1.626h1.414z"/>
        </g>
        <g fill="#FFF" mask="url(#b)">
            <path fill-rule="nonzero" d="M9.053 13.91v12.446l10.95 6.23 10.95-6.23V13.91l-10.95-6.23-10.95 6.23zm10.95-7.457L32.02 13.29v13.687l-12.016 6.837-12.016-6.837V13.29l12.016-6.837z" opacity=".5"/>
            <path d="M20.1 8.6a1.3 1.3 0 1 1 0-2.6 1.3 1.3 0 0 1 0 2.6zM8.5 15a1.3 1.3 0 1 1 0-2.6 1.3 1.3 0 0 1 0 2.6zM8.5 27.8a1.3 1.3 0 1 1 0-2.6 1.3 1.3 0 0 1 0 2.6zM20.1 34.6a1.3 1.3 0 1 1 0-2.6 1.3 1.3 0 0 1 0 2.6zM31.42 15a1.3 1.3 0 1 1 0-2.6 1.3 1.3 0 0 1 0 2.6zM31.42 27.8a1.3 1.3 0 1 1 0-2.6 1.3 1.3 0 0 1 0 2.6z"/>
        </g>
    </g>
</svg>
