<svg xmlns="http://www.w3.org/2000/svg" xmlns:xlink="http://www.w3.org/1999/xlink" width="40" height="40" viewBox="0 0 40 40">
    <defs>
        <circle id="a" cx="20" cy="20" r="20"/>
    </defs>
    <g fill="none" fill-rule="evenodd">
        <use fill="#14ADEA" xlink:href="#a"/>
        <path fill="#FFF" d="M31.086 28.522a.4.4 0 0 1-.4.4l-21.47-.02c-.22 0-.4-.18-.4-.4l.016-17.235c0-.22.18-.4.4-.4l21.47.019c.22 0 .399.18.399.4l-.015 17.236z"/>
        <path fill="#C4EAF9" d="M31.129 13.657l.002-2.582a.391.391 0 0 0-.39-.39l-21.549-.018a.39.39 0 0 0-.39.389L8.8 13.637l22.329.02z"/>
        <path fill="#14ADEA" d="M11.114 12.742H10.09v-1.023h1.024zM13.2 12.744h-1.023l.001-1.023h1.023zM15.36 12.746h-1.022v-1.024l1.023.001z"/>
        <path fill="#C4DEF4" fill-rule="nonzero" d="M16.876 16.59l.693-.399 5.219 9.04-.693.4z"/>
        <path fill="#C4DEF4" fill-rule="nonzero" d="M22.083 16.191l.693.4-5.219 9.04-.693-.4z"/>
        <path fill="#C4DEF4" fill-rule="nonzero" d="M14.613 21.31v-.8H25.03v.8z"/>
        <path fill="#C4DEF4" fill-rule="nonzero" d="M17.454 25.03h4.757l2.378-4.12-2.378-4.12h-4.757l-2.379 4.12 2.379 4.12zm-3.303-4.12l2.84-4.92h5.682l2.84 4.92-2.84 4.92h-5.681l-2.84-4.92z"/>
        <path fill="#14ADEA" d="M18.407 16.278a1.16 1.16 0 1 1-2.32 0 1.16 1.16 0 0 1 2.32 0M23.577 16.278a1.16 1.16 0 1 1-2.319 0 1.16 1.16 0 0 1 2.32 0M18.407 25.542a1.16 1.16 0 1 1-2.32 0 1.16 1.16 0 0 1 2.32 0M23.577 25.542a1.16 1.16 0 1 1-2.319 0 1.16 1.16 0 0 1 2.32 0M15.773 20.927a1.16 1.16 0 1 1-2.32 0 1.16 1.16 0 0 1 2.32 0M26.211 20.927a1.16 1.16 0 1 1-2.32 0 1.16 1.16 0 0 1 2.32 0M20.992 20.927a1.16 1.16 0 1 1-2.32 0 1.16 1.16 0 0 1 2.32 0"/>
    </g>
</svg>
