<svg xmlns="http://www.w3.org/2000/svg" xmlns:xlink="http://www.w3.org/1999/xlink" width="40" height="40" viewBox="0 0 40 40">
    <defs>
        <circle id="a" cx="20" cy="20" r="20"/>
    </defs>
    <g fill="none" fill-rule="evenodd">
        <use fill="#14ADEA" xlink:href="#a"/>
        <path fill="#FFF" d="M13.2 14.8c-.22 0-.4.089-.4.197v4.817c0 .108.18.197.4.197h13.391c.22 0 .4-.089.4-.197v-4.817c0-.108-.18-.197-.4-.197H13.2z"/>
        <path fill="#FFF" d="M13.2 20.4c-.22 0-.4.089-.4.197v4.817c0 .108.18.197.4.197h13.391c.22 0 .4-.089.4-.197v-4.817c0-.108-.18-.197-.4-.197H13.2z" opacity=".747"/>
        <path fill="#14ADEA" d="M12.8 20.496h14.191v-.956H12.8zM24 17.8h1.4v-1.4H24zM24 23.8h1.4v-1.4H24z"/>
        <g fill="#FFF">
            <path fill-rule="nonzero" d="M9.053 13.91v12.446l10.95 6.23 10.95-6.23V13.91l-10.95-6.23-10.95 6.23zm10.95-7.457L32.02 13.29v13.687l-12.016 6.837-12.016-6.837V13.29l12.016-6.837z" opacity=".5"/>
            <path d="M20.1 8.6a1.3 1.3 0 1 1 0-2.6 1.3 1.3 0 0 1 0 2.6zM8.5 15a1.3 1.3 0 1 1 0-2.6 1.3 1.3 0 0 1 0 2.6zM8.5 27.8a1.3 1.3 0 1 1 0-2.6 1.3 1.3 0 0 1 0 2.6zM20.1 34.6a1.3 1.3 0 1 1 0-2.6 1.3 1.3 0 0 1 0 2.6zM31.42 15a1.3 1.3 0 1 1 0-2.6 1.3 1.3 0 0 1 0 2.6zM31.42 27.8a1.3 1.3 0 1 1 0-2.6 1.3 1.3 0 0 1 0 2.6z"/>
        </g>
    </g>
</svg>
